<svg width="28" height="28" viewBox="0 0 28 28" fill="none" xmlns="http://www.w3.org/2000/svg">
<path d="M22.7501 8.74994L21.0117 10.4883L17.5117 6.98828L19.2501 5.24994C19.7401 4.75994 20.3701 4.52661 21.0001 4.52661C21.6301 4.52661 22.2601 4.75994 22.7501 5.24994C23.7184 6.21828 23.7184 7.78161 22.7501 8.74994Z" fill="url(#paint0_linear_8_698)"/>
<path d="M20.195 11.3167L7.58331 23.9167C6.61497 24.885 5.05164 24.885 4.08331 23.9167C3.11497 22.9483 3.11497 21.385 4.08331 20.4166L16.695 7.81665L20.195 11.3167Z" fill="url(#paint1_linear_8_698)"/>
<path d="M11.6084 4.08335L12.0867 2.46169C12.1334 2.31002 12.0867 2.14669 11.9817 2.03002C11.8767 1.91335 11.6901 1.86669 11.5384 1.91335L9.91673 2.39169L8.29506 1.91335C8.14339 1.86669 7.98006 1.91335 7.86339 2.01835C7.74673 2.13502 7.71173 2.29835 7.75839 2.45002L8.22506 4.08335L7.74673 5.70502C7.70006 5.85669 7.74673 6.02002 7.85173 6.13669C7.96839 6.25335 8.13173 6.28835 8.28339 6.24169L9.91673 5.77502L11.5384 6.25335C11.5851 6.26502 11.6201 6.27669 11.6667 6.27669C11.7834 6.27669 11.8884 6.23002 11.9817 6.14835C12.0984 6.03169 12.1334 5.86835 12.0867 5.71669L11.6084 4.08335Z" fill="url(#paint2_linear_8_698)"/>
<path d="M6.94165 11.0834L7.41998 9.46169C7.46665 9.31002 7.41998 9.14669 7.31498 9.03002C7.19831 8.91335 7.03498 8.87835 6.88331 8.92502L5.24998 9.39169L3.62831 8.91335C3.47665 8.86669 3.31331 8.91335 3.19665 9.01835C3.07998 9.13502 3.04498 9.29835 3.09165 9.45002L3.55831 11.0834L3.07998 12.705C3.03331 12.8567 3.07998 13.02 3.18498 13.1367C3.30165 13.2534 3.46498 13.2884 3.61665 13.2417L5.23831 12.7634L6.85998 13.2417C6.89498 13.2534 6.94165 13.2534 6.98831 13.2534C7.10498 13.2534 7.20998 13.2067 7.30331 13.125C7.41998 13.0084 7.45498 12.845 7.40831 12.6934L6.94165 11.0834Z" fill="url(#paint3_linear_8_698)"/>
<path d="M24.4416 16.9166L24.9199 15.2949C24.9666 15.1433 24.9199 14.9799 24.8149 14.8633C24.6983 14.7466 24.5349 14.7116 24.3833 14.7583L22.7616 15.2366L21.1399 14.7583C20.9883 14.7116 20.8249 14.7583 20.7083 14.8633C20.5916 14.9799 20.5566 15.1433 20.6033 15.2949L21.0816 16.9166L20.6033 18.5383C20.5566 18.6899 20.6033 18.8533 20.7083 18.9699C20.8249 19.0866 20.9883 19.1216 21.1399 19.0749L22.7616 18.5966L24.3833 19.0749C24.4183 19.0866 24.4649 19.0866 24.5116 19.0866C24.6283 19.0866 24.7333 19.0399 24.8266 18.9583C24.9433 18.8416 24.9783 18.6783 24.9316 18.5266L24.4416 16.9166Z" fill="url(#paint4_linear_8_698)"/>
<defs>
<linearGradient id="paint0_linear_8_698" x1="20.494" y1="4.52661" x2="20.494" y2="10.4883" gradientUnits="userSpaceOnUse">
<stop stop-color="#F8C89A"/>
<stop offset="0.0001" stop-color="#F8C89A"/>
<stop offset="1" stop-color="#F3FAFF"/>
</linearGradient>
<linearGradient id="paint1_linear_8_698" x1="11.776" y1="7.81665" x2="11.776" y2="24.6429" gradientUnits="userSpaceOnUse">
<stop stop-color="#F8C89A"/>
<stop offset="0.0001" stop-color="#F8C89A"/>
<stop offset="1" stop-color="#F3FAFF"/>
</linearGradient>
<linearGradient id="paint2_linear_8_698" x1="9.91768" y1="1.89526" x2="9.91768" y2="6.27669" gradientUnits="userSpaceOnUse">
<stop stop-color="#F8C89A"/>
<stop offset="0.0001" stop-color="#F8C89A"/>
<stop offset="1" stop-color="#F3FAFF"/>
</linearGradient>
<linearGradient id="paint3_linear_8_698" x1="5.24998" y1="8.89526" x2="5.24998" y2="13.2617" gradientUnits="userSpaceOnUse">
<stop stop-color="#F8C89A"/>
<stop offset="0.0001" stop-color="#F8C89A"/>
<stop offset="1" stop-color="#F3FAFF"/>
</linearGradient>
<linearGradient id="paint4_linear_8_698" x1="22.7674" y1="14.7383" x2="22.7674" y2="19.0949" gradientUnits="userSpaceOnUse">
<stop stop-color="#F8C89A"/>
<stop offset="0.0001" stop-color="#F8C89A"/>
<stop offset="1" stop-color="#F3FAFF"/>
</linearGradient>
</defs>
</svg>
