<svg width="16" height="20" viewBox="0 0 16 20" fill="none" xmlns="http://www.w3.org/2000/svg">
<path fill-rule="evenodd" clip-rule="evenodd" d="M6.88596 0C5.59467 0 4.44826 0.82629 4.03991 2.05132L3.64961 3.22222H2C1.83471 3.22222 1.67878 3.26233 1.54142 3.33333H1C0.447715 3.33333 0 3.78105 0 4.33333C0 4.88562 0.447715 5.33333 1 5.33333V18.8889C1 19.4412 1.44771 19.8889 2 19.8889H13.3333C13.8856 19.8889 14.3333 19.4412 14.3333 18.8889V5.33333C14.8856 5.33333 15.3333 4.88562 15.3333 4.33333C15.3333 3.78105 14.8856 3.33333 14.3333 3.33333H13.7919C13.6546 3.26233 13.4986 3.22222 13.3333 3.22222H11.6837L11.2934 2.05132C10.8851 0.826291 9.73866 0 8.44737 0H6.88596ZM12.3333 5.33333L11 5.33333H4.33333L3 5.33333V17.8889H12.3333V5.33333ZM9.57554 3.22222L9.39605 2.68377C9.25994 2.27543 8.8778 2 8.44737 2H6.88596C6.45553 2 6.07339 2.27543 5.93728 2.68377L5.7578 3.22222H9.57554Z" fill="#E9455D"/>
</svg>
