<svg width="182" height="182" viewBox="0 0 182 182" fill="none" xmlns="http://www.w3.org/2000/svg">
<path d="M166.833 91.0001C166.833 49.2159 132.784 15.1667 91 15.1667C49.2158 15.1667 15.1666 49.2159 15.1666 91.0001C15.1666 112.992 24.6458 132.784 39.6608 146.662C39.6608 146.738 39.6608 146.738 39.585 146.813C40.3433 147.572 41.2533 148.178 42.0116 148.861C42.4666 149.24 42.8458 149.619 43.3008 149.923C44.6658 151.06 46.1825 152.122 47.6233 153.183C48.1541 153.563 48.6091 153.866 49.14 154.245C50.5808 155.231 52.0975 156.141 53.69 156.975C54.2208 157.278 54.8275 157.658 55.3583 157.961C56.875 158.795 58.4675 159.553 60.1358 160.236C60.7425 160.539 61.3491 160.843 61.9558 161.07C63.6241 161.753 65.2925 162.359 66.9608 162.89C67.5675 163.118 68.1741 163.345 68.7808 163.497C70.6008 164.028 72.4208 164.483 74.2408 164.938C74.7716 165.089 75.3025 165.241 75.9091 165.317C78.0325 165.772 80.1558 166.075 82.355 166.303C82.6583 166.303 82.9616 166.378 83.265 166.454C85.8433 166.682 88.4216 166.833 91 166.833C93.5783 166.833 96.1566 166.682 98.6591 166.454C98.9625 166.454 99.2658 166.378 99.5691 166.303C101.768 166.075 103.892 165.772 106.015 165.317C106.546 165.241 107.077 165.013 107.683 164.938C109.503 164.483 111.399 164.103 113.143 163.497C113.75 163.269 114.357 163.042 114.963 162.89C116.632 162.283 118.376 161.753 119.968 161.07C120.575 160.843 121.182 160.539 121.788 160.236C123.381 159.553 124.973 158.795 126.566 157.961C127.172 157.658 127.703 157.278 128.234 156.975C129.751 156.065 131.267 155.231 132.784 154.245C133.315 153.942 133.77 153.563 134.301 153.183C135.817 152.122 137.258 151.06 138.623 149.923C139.078 149.543 139.457 149.164 139.912 148.861C140.747 148.178 141.581 147.496 142.339 146.813C142.339 146.738 142.339 146.738 142.263 146.662C157.354 132.784 166.833 112.992 166.833 91.0001ZM128.462 128.689C107.911 114.888 74.2408 114.888 53.5383 128.689C50.2016 130.888 47.4716 133.467 45.1966 136.273C33.67 124.594 26.5416 108.593 26.5416 91.0001C26.5416 55.4342 55.4341 26.5417 91 26.5417C126.566 26.5417 155.458 55.4342 155.458 91.0001C155.458 108.593 148.33 124.594 136.803 136.273C134.604 133.467 131.798 130.888 128.462 128.689Z" fill="#FFFFFF"/>
<path d="M91 52.5537C75.3025 52.5537 62.5625 65.2937 62.5625 80.9912C62.5625 96.3854 74.62 108.898 90.6208 109.353C90.8483 109.353 91.1517 109.353 91.3033 109.353C91.455 109.353 91.6825 109.353 91.8342 109.353C91.91 109.353 91.9858 109.353 91.9858 109.353C107.304 108.822 119.362 96.3854 119.438 80.9912C119.438 65.2937 106.698 52.5537 91 52.5537Z" fill="#FFFFFF"/>
</svg>
