<svg width="328" height="220" viewBox="0 0 328 220" fill="none" xmlns="http://www.w3.org/2000/svg">
<path d="M20 0.5H308C318.77 0.5 327.5 9.23045 327.5 20V200C327.5 210.77 318.77 219.5 308 219.5H164H20C9.23045 219.5 0.5 210.77 0.5 200V20C0.5 9.23043 9.23045 0.5 20 0.5Z" fill="#C4C4C4" stroke="#E9455D"/>
<path fill-rule="evenodd" clip-rule="evenodd" d="M165.559 83.5527C165.559 82.172 164.44 81.0527 163.059 81.0527C161.679 81.0527 160.559 82.172 160.559 83.5527V108.474H136.682C135.301 108.474 134.182 109.593 134.182 110.974C134.182 112.354 135.301 113.474 136.682 113.474H160.559V137.606C160.559 138.986 161.679 140.106 163.059 140.106C164.44 140.106 165.559 138.986 165.559 137.606V113.474H190.171C191.552 113.474 192.671 112.354 192.671 110.974C192.671 109.593 191.552 108.474 190.171 108.474H165.559V83.5527Z" fill="black" fill-opacity="0.6"/>
</svg>
