<?xml version="1.0" encoding="UTF-8"?>
<svg xmlns="http://www.w3.org/2000/svg" xmlns:xlink="http://www.w3.org/1999/xlink" width="20px" height="20px" viewBox="0 0 20 20" version="1.1">
<g id="surface1">
<path style=" stroke:none;fill-rule:nonzero;fill:rgb(3.137255%,40%,100%);fill-opacity:1;" d="M 19.988281 9.996094 C 19.988281 4.476562 15.515625 0 9.996094 0 C 4.476562 0 0 4.476562 0 9.996094 C 0 14.683594 3.226562 18.617188 7.582031 19.695312 L 7.582031 13.050781 L 5.519531 13.050781 L 5.519531 9.996094 L 7.582031 9.996094 L 7.582031 8.679688 C 7.582031 5.277344 9.121094 3.699219 12.460938 3.699219 C 13.09375 3.699219 14.1875 3.824219 14.632812 3.949219 L 14.632812 6.71875 C 14.398438 6.691406 13.988281 6.679688 13.476562 6.679688 C 11.839844 6.679688 11.207031 7.300781 11.207031 8.914062 L 11.207031 9.996094 L 14.46875 9.996094 L 13.910156 13.050781 L 11.207031 13.050781 L 11.207031 19.917969 C 16.15625 19.320312 19.988281 15.105469 19.988281 9.996094 "/>
<path style=" stroke:none;fill-rule:nonzero;fill:rgb(100%,100%,100%);fill-opacity:1;" d="M 13.910156 13.050781 L 14.46875 9.996094 L 11.207031 9.996094 L 11.207031 8.914062 C 11.207031 7.300781 11.839844 6.679688 13.476562 6.679688 C 13.988281 6.679688 14.398438 6.691406 14.632812 6.71875 L 14.632812 3.949219 C 14.1875 3.824219 13.09375 3.699219 12.460938 3.699219 C 9.121094 3.699219 7.582031 5.277344 7.582031 8.679688 L 7.582031 9.996094 L 5.519531 9.996094 L 5.519531 13.050781 L 7.582031 13.050781 L 7.582031 19.695312 C 8.355469 19.886719 9.164062 19.988281 9.996094 19.988281 C 10.40625 19.988281 10.808594 19.964844 11.207031 19.917969 L 11.207031 13.050781 Z M 13.910156 13.050781 "/>
</g>
</svg>
