<svg width="28" height="28" viewBox="0 0 28 28" fill="none" xmlns="http://www.w3.org/2000/svg">
<path d="M24.3017 9.34506L16.66 3.23173C15.1667 2.04173 12.8333 2.03006 11.3517 3.22006L3.71 9.34506C2.61333 10.2201 1.94833 11.9701 2.18166 13.3467L3.65166 22.1434C3.99 24.1151 5.82166 25.6667 7.81666 25.6667H20.1833C22.155 25.6667 24.0217 24.0801 24.36 22.1317L25.83 13.3351C26.04 11.9701 25.375 10.2201 24.3017 9.34506ZM14.875 21.0001C14.875 21.4784 14.4783 21.8751 14 21.8751C13.5217 21.8751 13.125 21.4784 13.125 21.0001V17.5001C13.125 17.0217 13.5217 16.6251 14 16.6251C14.4783 16.6251 14.875 17.0217 14.875 17.5001V21.0001Z" fill="url(#paint0_linear_8_768)"/>
<defs>
<linearGradient id="paint0_linear_8_768" x1="14.0019" y1="2.33337" x2="14.0019" y2="25.6667" gradientUnits="userSpaceOnUse">
<stop stop-color="#F8C89A"/>
<stop offset="0.0001" stop-color="#F8C89A"/>
<stop offset="1" stop-color="#F3FAFF"/>
</linearGradient>
</defs>
</svg>
