<svg width="25" height="25" viewBox="0 0 25 25" fill="none" xmlns="http://www.w3.org/2000/svg">
<path d="M8.73962 19.2604V8.67708C8.73962 8.26041 8.86462 7.85416 9.09379 7.51041L11.9375 3.28124C12.3855 2.60416 13.5 2.12499 14.448 2.47916C15.4688 2.82291 16.1459 3.96874 15.9271 4.98958L15.3855 8.39583C15.3438 8.70833 15.4271 8.98958 15.6042 9.20833C15.7813 9.40625 16.0417 9.53124 16.323 9.53124H20.6042C21.4271 9.53124 22.1355 9.86458 22.5521 10.4479C22.948 11.0104 23.0209 11.7396 22.7605 12.4792L20.198 20.2812C19.875 21.5729 18.4688 22.625 17.073 22.625H13.0105C12.3125 22.625 11.3334 22.3854 10.8855 21.9375L9.55212 20.9062C9.04171 20.5208 8.73962 19.9062 8.73962 19.2604Z" fill="#0DC0DE"/>
<path d="M5.42712 6.64584H4.35421C2.73962 6.64584 2.08337 7.27084 2.08337 8.81251V19.2917C2.08337 20.8333 2.73962 21.4583 4.35421 21.4583H5.42712C7.04171 21.4583 7.69796 20.8333 7.69796 19.2917V8.81251C7.69796 7.27084 7.04171 6.64584 5.42712 6.64584Z" fill="#0DC0DE"/>
</svg>
