<svg width="500" height="500" viewBox="0 0 500 500" fill="none" xmlns="http://www.w3.org/2000/svg">
<circle cx="250" cy="250" r="250" fill="#E9455D"/>
<path d="M293.092 207.9C299.492 206.1 305.892 205.2 312.292 205.2C318.892 205.2 324.492 207.2 329.092 211.2C333.692 215.2 335.992 220.4 335.992 226.8C335.992 233 334.892 243.9 332.692 259.5C330.692 274.9 329.692 286.9 329.692 295.5C329.692 317.9 331.792 337.2 335.992 353.4C329.792 355.8 323.092 357 315.892 357C308.692 357 302.992 355.4 298.792 352.2C294.592 348.8 292.492 344 292.492 337.8C292.492 331.4 293.692 321 296.092 306.6C298.492 292.2 299.692 280.3 299.692 270.9C299.692 245.9 297.492 224.9 293.092 207.9ZM296.992 140.1C303.992 136.9 310.892 135.3 317.692 135.3C324.492 135.3 329.492 137.1 332.692 140.7C336.092 144.1 337.792 149.2 337.792 156C337.792 162.8 335.492 168.8 330.892 174C326.492 179.2 320.692 181.8 313.492 181.8C298.692 181.8 291.292 174.1 291.292 158.7C291.292 151.9 293.192 145.7 296.992 140.1ZM379.649 161.1C386.049 157.9 392.549 156.3 399.149 156.3C405.749 156.3 411.049 158.4 415.049 162.6C419.249 166.8 421.349 173 421.349 181.2C421.349 189.4 420.849 198.7 419.849 209.1C434.849 209.1 449.149 207 462.749 202.8C465.149 206.8 466.349 211.5 466.349 216.9C466.349 222.1 463.949 226.4 459.149 229.8C454.549 233 449.849 234.6 445.049 234.6C440.249 234.6 434.849 234 428.849 232.8C422.849 231.6 418.949 230.9 417.149 230.7C416.949 232.5 416.349 236.1 415.349 241.5C414.549 246.9 413.849 251.6 413.249 255.6C411.649 266.6 410.849 278.4 410.849 291C410.849 318.4 419.749 332.1 437.549 332.1C444.149 332.1 451.749 329.8 460.349 325.2C462.949 329 464.249 333.9 464.249 339.9C464.249 345.9 460.949 350.6 454.349 354C447.949 357.2 440.249 358.8 431.249 358.8C396.049 358.8 378.449 338.8 378.449 298.8C378.449 293 379.249 282.5 380.849 267.3C382.649 252.1 383.549 239.8 383.549 230.4C373.949 231 366.249 232.7 360.449 235.5C358.049 231.9 356.849 227.8 356.849 223.2C356.849 218.4 358.549 214.5 361.949 211.5C365.349 208.3 369.549 206.7 374.549 206.7C379.549 206.7 382.849 206.8 384.449 207C384.649 205.4 384.749 203.3 384.749 200.7C384.749 185.7 383.049 172.5 379.649 161.1Z" fill="url(#paint0_linear_38_1316)"/>
<path d="M58.9353 154.36C65.8953 154.36 71.9753 156.4 77.1753 160.48C82.3753 164.56 84.9753 169.84 84.9753 176.32C84.9753 179.76 84.0153 182.6 82.0953 184.84C80.1753 187.08 77.8153 188.2 75.0153 188.2C72.2153 188.2 69.9753 187.84 68.2953 187.12C68.5353 185.84 68.6553 184.48 68.6553 183.04C68.5753 178 67.3353 173.92 64.9353 170.8C62.5353 167.6 59.0152 166 54.3752 166C49.8153 166 45.5753 167.48 41.6553 170.44C39.3353 173.8 37.5353 178.2 36.2553 183.64C34.9753 189.08 34.3353 194.44 34.3353 199.72C34.3353 208.52 36.0152 215.92 39.3752 221.92C42.8153 227.84 48.1353 230.8 55.3353 230.8C61.9753 230.8 66.4553 228.28 68.7753 223.24C70.9353 218.84 72.0153 213 72.0153 205.72C76.0953 205.72 79.4953 206.48 82.2153 208C84.9353 209.44 86.2952 211.84 86.2952 215.2C86.2952 223.04 82.8553 229.56 75.9753 234.76C69.0953 239.88 61.3353 242.44 52.6952 242.44C41.4152 242.44 32.8552 238.72 27.0152 231.28C21.1752 223.76 18.2552 213.6 18.2552 200.8C18.2552 188 21.8952 177.08 29.1752 168.04C36.5352 158.92 46.4553 154.36 58.9353 154.36ZM116.404 242.44C107.604 242.44 101.124 239.88 96.9638 234.76C92.8038 229.56 90.7238 222.36 90.7238 213.16C90.7238 203.88 93.4838 195.84 99.0038 189.04C104.524 182.24 111.604 178.84 120.244 178.84C138.004 178.84 146.884 188.84 146.884 208.84C146.884 218.2 144.004 226.16 138.244 232.72C132.484 239.2 125.204 242.44 116.404 242.44ZM107.764 192.04C106.324 196.68 105.604 201.32 105.604 205.96C105.604 210.6 105.764 214.2 106.084 216.76C106.404 219.32 107.004 221.88 107.884 224.44C109.724 229.64 113.324 232.24 118.684 232.24C124.124 232.24 127.684 230.8 129.364 227.92C131.124 225.04 132.004 220.6 132.004 214.6C132.004 197.56 127.964 189.04 119.884 189.04C115.244 189.04 111.204 190.04 107.764 192.04ZM177.754 242.44C168.954 242.44 162.474 239.88 158.314 234.76C154.154 229.56 152.074 222.36 152.074 213.16C152.074 203.88 154.834 195.84 160.354 189.04C165.874 182.24 172.954 178.84 181.594 178.84C199.354 178.84 208.234 188.84 208.234 208.84C208.234 218.2 205.354 226.16 199.594 232.72C193.834 239.2 186.554 242.44 177.754 242.44ZM169.114 192.04C167.674 196.68 166.954 201.32 166.954 205.96C166.954 210.6 167.114 214.2 167.434 216.76C167.754 219.32 168.354 221.88 169.234 224.44C171.074 229.64 174.674 232.24 180.034 232.24C185.474 232.24 189.034 230.8 190.714 227.92C192.474 225.04 193.354 220.6 193.354 214.6C193.354 197.56 189.314 189.04 181.234 189.04C176.594 189.04 172.554 190.04 169.114 192.04ZM232.143 203.2C234.943 197.28 239.103 191.88 244.623 187C250.223 182.04 255.863 179.56 261.543 179.56C269.543 179.56 273.543 183.8 273.543 192.28C273.543 196.6 271.543 201.24 267.543 206.2C263.623 211.08 259.223 214.96 254.343 217.84C256.583 221.76 259.343 224.76 262.623 226.84C265.983 228.84 270.383 230.44 275.823 231.64C275.823 234.76 275.063 237.24 273.543 239.08C272.103 240.84 270.023 241.72 267.303 241.72C261.863 241.72 256.543 239.12 251.343 233.92C246.143 228.64 242.223 222.76 239.583 216.28C244.703 213.72 249.103 210.68 252.783 207.16C256.543 203.64 258.423 200.12 258.423 196.6C258.423 193.08 257.343 191.32 255.183 191.32C251.023 191.32 246.383 195.12 241.263 202.72C236.223 210.32 233.303 216.64 232.503 221.68C232.663 224 233.463 229.96 234.903 239.56C232.423 240.52 229.703 241 226.743 241C220.583 241 217.503 238 217.503 232C217.503 229.12 217.943 223.48 218.823 215.08C219.703 206.6 220.143 199.8 220.143 194.68C220.143 177.64 219.183 163.56 217.263 152.44C219.823 151.48 222.463 151 225.183 151C227.903 151 230.143 151.92 231.903 153.76C233.743 155.52 234.663 157.96 234.663 161.08C234.663 164.2 234.223 170.64 233.343 180.4C232.543 190.16 232.143 197.76 232.143 203.2ZM160.073 335.44C161.033 337.6 161.513 340.04 161.513 342.76C161.513 345.48 160.553 347.84 158.633 349.84C156.793 351.76 154.513 352.72 151.793 352.72C143.313 352.72 130.033 352.24 111.953 351.28C110.513 351.2 109.233 350.76 108.113 349.96C106.993 349.08 106.433 348 106.433 346.72C106.433 342.48 106.753 335.32 107.393 325.24C108.113 315.16 108.473 305.76 108.473 297.04C108.473 288.24 107.633 278.16 105.953 266.8C111.873 267.28 119.833 267.52 129.833 267.52C139.833 267.52 149.393 266.8 158.513 265.36C159.473 267.12 159.954 269.24 159.954 271.72C159.954 274.12 158.993 276.28 157.073 278.2C155.233 280.04 152.913 280.96 150.113 280.96C147.393 280.96 142.993 280.56 136.913 279.76C130.913 278.96 126.473 278.56 123.593 278.56C122.953 286.64 122.593 294.24 122.513 301.36C127.553 301.84 132.953 302.08 138.713 302.08C144.553 302.08 149.553 301.24 153.713 299.56C154.673 301.32 155.153 303.44 155.153 305.92C155.153 308.32 154.193 310.52 152.273 312.52C150.433 314.44 148.193 315.4 145.553 315.4C142.993 315.4 139.153 314.92 134.033 313.96C128.913 312.92 125.033 312.4 122.393 312.4C122.393 325.04 122.673 334.32 123.233 340.24C127.073 340.56 130.073 340.72 132.233 340.72C142.793 340.72 152.073 338.96 160.073 335.44ZM225.754 295.48C223.594 304.68 222.514 313.92 222.514 323.2C222.514 332.4 223.554 341.52 225.634 350.56C222.754 351.52 219.794 352 216.754 352C213.714 352 211.594 351.12 210.394 349.36C209.194 347.52 208.594 344.92 208.594 341.56C208.594 338.12 209.114 333.44 210.154 327.52C204.474 339.68 198.994 347.36 193.714 350.56C191.314 352 188.834 352.72 186.274 352.72C180.194 352.72 175.474 350.48 172.114 346C168.754 341.44 167.074 335.8 167.074 329.08C167.074 318.84 169.914 309.88 175.594 302.2C181.274 294.44 188.634 290.56 197.674 290.56C206.794 290.56 216.154 292.2 225.754 295.48ZM210.034 302.68C205.794 301.4 202.194 300.76 199.234 300.76C193.234 300.76 188.754 302.08 185.794 304.72C183.074 311.44 181.714 318.28 181.714 325.24C181.714 328.92 182.274 332.64 183.394 336.4C184.594 340.16 186.394 342.04 188.794 342.04C191.594 342.04 195.194 337.92 199.594 329.68C203.994 321.44 207.474 312.44 210.034 302.68ZM240.576 273.64C243.136 272.36 245.736 271.72 248.376 271.72C251.016 271.72 253.136 272.56 254.736 274.24C256.416 275.92 257.256 278.4 257.256 281.68C257.256 284.96 257.056 288.68 256.656 292.84C262.656 292.84 268.376 292 273.816 290.32C274.776 291.92 275.256 293.8 275.256 295.96C275.256 298.04 274.296 299.76 272.376 301.12C270.536 302.4 268.656 303.04 266.736 303.04C264.816 303.04 262.656 302.8 260.256 302.32C257.856 301.84 256.296 301.56 255.576 301.48C255.496 302.2 255.256 303.64 254.856 305.8C254.536 307.96 254.256 309.84 254.016 311.44C253.376 315.84 253.056 320.56 253.056 325.6C253.056 336.56 256.616 342.04 263.736 342.04C266.376 342.04 269.416 341.12 272.856 339.28C273.896 340.8 274.416 342.76 274.416 345.16C274.416 347.56 273.096 349.44 270.456 350.8C267.896 352.08 264.816 352.72 261.216 352.72C247.136 352.72 240.096 344.72 240.096 328.72C240.096 326.4 240.416 322.2 241.056 316.12C241.776 310.04 242.136 305.12 242.136 301.36C238.296 301.6 235.216 302.28 232.896 303.4C231.936 301.96 231.456 300.32 231.456 298.48C231.456 296.56 232.136 295 233.496 293.8C234.856 292.52 236.536 291.88 238.536 291.88C240.536 291.88 241.856 291.92 242.496 292C242.576 291.36 242.616 290.52 242.616 289.48C242.616 283.48 241.936 278.2 240.576 273.64Z" fill="white"/>
<defs>
<linearGradient id="paint0_linear_38_1316" x1="373.5" y1="145" x2="373.5" y2="353" gradientUnits="userSpaceOnUse">
<stop stop-color="#F8C89A"/>
<stop offset="0.0001" stop-color="#F8C89A"/>
<stop offset="1" stop-color="#F3FAFF"/>
</linearGradient>
</defs>
</svg>
