<svg width="30" height="30" viewBox="0 0 30 30" fill="none" xmlns="http://www.w3.org/2000/svg">
<path d="M21.9125 9.71348C21.825 9.70098 21.7375 9.70098 21.65 9.71348C19.7125 9.65098 18.175 8.06348 18.175 6.11348C18.175 4.12598 19.7875 2.50098 21.7875 2.50098C23.775 2.50098 25.4 4.11348 25.4 6.11348C25.3875 8.06348 23.85 9.65098 21.9125 9.71348Z" fill="#E9455D"/>
<path d="M25.9874 18.3755C24.5874 19.313 22.6249 19.663 20.8124 19.4255C21.2874 18.4005 21.5374 17.263 21.5499 16.063C21.5499 14.813 21.2749 13.6255 20.7499 12.588C22.5999 12.338 24.5624 12.688 25.9749 13.6255C27.9499 14.9255 27.9499 17.063 25.9874 18.3755Z" fill="#E9455D"/>
<path d="M8.04995 9.71348C8.13745 9.70098 8.22495 9.70098 8.31245 9.71348C10.25 9.65098 11.7875 8.06348 11.7875 6.11348C11.7875 4.11348 10.175 2.50098 8.17495 2.50098C6.18745 2.50098 4.57495 4.11348 4.57495 6.11348C4.57495 8.06348 6.11245 9.65098 8.04995 9.71348Z" fill="#E9455D"/>
<path d="M8.18765 16.0632C8.18765 17.2757 8.45015 18.4257 8.92515 19.4632C7.16265 19.6507 5.32515 19.2757 3.97515 18.3882C2.00015 17.0757 2.00015 14.9382 3.97515 13.6257C5.31265 12.7257 7.20015 12.3632 8.97515 12.5632C8.46265 13.6132 8.18765 14.8007 8.18765 16.0632Z" fill="#E9455D"/>
<path d="M15.1502 19.8375C15.0502 19.825 14.9377 19.825 14.8252 19.8375C12.5252 19.7625 10.6877 17.875 10.6877 15.55C10.7002 13.175 12.6127 11.25 15.0002 11.25C17.3752 11.25 19.3002 13.175 19.3002 15.55C19.2877 17.875 17.4627 19.7625 15.1502 19.8375Z" fill="#E9455D"/>
<path d="M11.0876 22.4248C9.20012 23.6873 9.20012 25.7623 11.0876 27.0123C13.2376 28.4498 16.7626 28.4498 18.9126 27.0123C20.8001 25.7498 20.8001 23.6748 18.9126 22.4248C16.7751 20.9873 13.2501 20.9873 11.0876 22.4248Z" fill="#E9455D"/>
</svg>
