<svg width="28" height="28" viewBox="0 0 28 28" fill="none" xmlns="http://www.w3.org/2000/svg">
<path d="M22.7617 6.82504L15.8317 2.82337C14.7001 2.17004 13.3001 2.17004 12.1567 2.82337L5.2384 6.82504C4.10674 7.47837 3.40674 8.69171 3.40674 10.01V17.99C3.40674 19.2967 4.10674 20.51 5.2384 21.175L12.1684 25.1767C13.3001 25.83 14.7001 25.83 15.8434 25.1767L22.7734 21.175C23.9051 20.5217 24.6051 19.3084 24.6051 17.99V10.01C24.5934 8.69171 23.8934 7.49004 22.7617 6.82504ZM14.0001 8.56337C15.5051 8.56337 16.7184 9.77671 16.7184 11.2817C16.7184 12.7867 15.5051 14 14.0001 14C12.4951 14 11.2817 12.7867 11.2817 11.2817C11.2817 9.78837 12.4951 8.56337 14.0001 8.56337ZM17.1267 19.4367H10.8734C9.9284 19.4367 9.38007 18.3867 9.90507 17.605C10.6984 16.4267 12.2384 15.6334 14.0001 15.6334C15.7617 15.6334 17.3017 16.4267 18.0951 17.605C18.6201 18.375 18.0601 19.4367 17.1267 19.4367Z" fill="url(#paint0_linear_8_771)"/>
<defs>
<linearGradient id="paint0_linear_8_771" x1="14.0059" y1="2.33337" x2="14.0059" y2="25.6667" gradientUnits="userSpaceOnUse">
<stop stop-color="#F8C89A"/>
<stop offset="0.0001" stop-color="#F8C89A"/>
<stop offset="1" stop-color="#F3FAFF"/>
</linearGradient>
</defs>
</svg>
