<svg width="20" height="23" viewBox="0 0 20 23" fill="none" xmlns="http://www.w3.org/2000/svg">
<path d="M15.0476 0.933929H4.47003C2.14384 0.933929 0.234619 2.84285 0.234619 5.16866V20.6265C0.234619 22.6012 1.65008 23.435 3.38374 22.4806L8.73835 19.5075C9.30892 19.1893 10.2306 19.1893 10.7902 19.5075L16.1448 22.4806C17.8785 23.446 19.294 22.6122 19.294 20.6265V5.16866C19.283 2.84285 17.3847 0.933929 15.0476 0.933929ZM13.7309 8.74513L9.34184 13.1335C9.17725 13.298 8.96877 13.3748 8.7603 13.3748C8.55182 13.3748 8.34334 13.298 8.17875 13.1335L6.53287 11.4878C6.21466 11.1697 6.21466 10.6431 6.53287 10.3249C6.85107 10.0068 7.37775 10.0068 7.69596 10.3249L8.7603 11.3891L12.5678 7.58223C12.886 7.26408 13.4127 7.26408 13.7309 7.58223C14.0491 7.90038 14.0491 8.42698 13.7309 8.74513Z" fill="#0DC0DE"/>
</svg>
