<svg width="28" height="28" viewBox="0 0 28 28" fill="none" xmlns="http://www.w3.org/2000/svg">
<path d="M19.6233 2.22839H8.37662C5.90329 2.22839 3.87329 4.25839 3.87329 6.73173V23.1701C3.87329 25.2701 5.37829 26.1567 7.22162 25.1417L12.915 21.9801C13.5216 21.6417 14.5016 21.6417 15.0966 21.9801L20.79 25.1417C22.6333 26.1684 24.1383 25.2817 24.1383 23.1701V6.73173C24.1266 4.25839 22.1083 2.22839 19.6233 2.22839ZM18.2233 10.5351L13.5566 15.2017C13.3816 15.3767 13.16 15.4584 12.9383 15.4584C12.7166 15.4584 12.495 15.3767 12.32 15.2017L10.57 13.4517C10.2316 13.1134 10.2316 12.5534 10.57 12.2151C10.9083 11.8767 11.4683 11.8767 11.8066 12.2151L12.9383 13.3467L16.9866 9.29839C17.325 8.96006 17.885 8.96006 18.2233 9.29839C18.5616 9.63673 18.5616 10.1967 18.2233 10.5351Z" fill="url(#paint0_linear_8_692)"/>
<defs>
<linearGradient id="paint0_linear_8_692" x1="14.0058" y1="2.22839" x2="14.0058" y2="25.5693" gradientUnits="userSpaceOnUse">
<stop stop-color="#F8C89A"/>
<stop offset="0.0001" stop-color="#F8C89A"/>
<stop offset="1" stop-color="#F3FAFF"/>
</linearGradient>
</defs>
</svg>
