<svg width="30" height="30" viewBox="0 0 30 30" fill="none" xmlns="http://www.w3.org/2000/svg">
<path d="M21.7375 19.5875L16.6875 15H13.3L8.24997 19.5875C6.83747 20.8625 6.37497 22.825 7.06247 24.6C7.74997 26.3625 9.42497 27.5 11.3125 27.5H18.675C20.575 27.5 22.2375 26.3625 22.925 24.6C23.6125 22.825 23.15 20.8625 21.7375 19.5875ZM17.275 22.675H12.725C12.25 22.675 11.875 22.2875 11.875 21.825C11.875 21.3625 12.2625 20.975 12.725 20.975H17.275C17.75 20.975 18.125 21.3625 18.125 21.825C18.125 22.2875 17.7375 22.675 17.275 22.675Z" fill="#E9455D"/>
<path d="M22.9375 5.40098C22.25 3.63848 20.575 2.50098 18.6875 2.50098H11.3125C9.42496 2.50098 7.74996 3.63848 7.06246 5.40098C6.38746 7.17598 6.84996 9.13848 8.26246 10.4135L13.3125 15.001H16.7L21.75 10.4135C23.15 9.13848 23.6125 7.17598 22.9375 5.40098ZM17.275 9.03848H12.725C12.25 9.03848 11.875 8.65098 11.875 8.18848C11.875 7.72598 12.2625 7.33848 12.725 7.33848H17.275C17.75 7.33848 18.125 7.72598 18.125 8.18848C18.125 8.65098 17.7375 9.03848 17.275 9.03848Z" fill="#E9455D"/>
</svg>
