<svg width="25" height="25" viewBox="0 0 25 25" fill="none" xmlns="http://www.w3.org/2000/svg">
<path d="M7.79163 19.1146L11.0208 21.6146C11.4375 22.0312 12.375 22.2396 13 22.2396H16.9583C18.2083 22.2396 19.5625 21.3021 19.875 20.0521L22.375 12.4479C22.8958 10.9896 21.9583 9.73957 20.3958 9.73957H16.2291C15.6041 9.73957 15.0833 9.21874 15.1875 8.48957L15.7083 5.15624C15.9166 4.21874 15.2916 3.17707 14.3541 2.86457C13.5208 2.55207 12.4791 2.96874 12.0625 3.59374L7.79163 9.9479" fill="#0DC0DE" fill-opacity="0.1"/>
<path d="M7.79163 19.1146L11.0208 21.6146C11.4375 22.0312 12.375 22.2396 13 22.2396H16.9583C18.2083 22.2396 19.5625 21.3021 19.875 20.0521L22.375 12.4479C22.8958 10.9896 21.9583 9.73957 20.3958 9.73957H16.2291C15.6041 9.73957 15.0833 9.21874 15.1875 8.48957L15.7083 5.15624C15.9166 4.21874 15.2916 3.17707 14.3541 2.86457C13.5208 2.55207 12.4791 2.96874 12.0625 3.59374L7.79163 9.9479" stroke="#0DC0DE" stroke-width="1.5" stroke-miterlimit="10"/>
<path d="M2.47913 19.1146V8.90626C2.47913 7.44793 3.10413 6.92709 4.56246 6.92709H5.60413C7.06246 6.92709 7.68746 7.44793 7.68746 8.90626V19.1146C7.68746 20.5729 7.06246 21.0938 5.60413 21.0938H4.56246C3.10413 21.0938 2.47913 20.5729 2.47913 19.1146Z" fill="#0DC0DE" fill-opacity="0.1" stroke="#0DC0DE" stroke-width="1.5" stroke-linecap="round" stroke-linejoin="round"/>
</svg>
