<svg width="20" height="22" viewBox="0 0 20 22" fill="none" xmlns="http://www.w3.org/2000/svg">
<path d="M16.2825 20.9211L16.2817 20.9207L10.9301 17.9488C10.5096 17.7107 10.0043 17.6141 9.54112 17.6141C9.07603 17.6141 8.5696 17.7115 8.14613 17.9476C8.14601 17.9476 8.14589 17.9477 8.14577 17.9478L2.7947 20.9194C2.79431 20.9196 2.79392 20.9198 2.79353 20.92C2.07161 21.3172 1.57981 21.2591 1.31237 21.1016C1.04536 20.9443 0.757324 20.5438 0.757324 19.722V4.26163C0.757324 2.34839 2.32106 0.776215 4.24274 0.776215H14.8203C16.7408 0.776215 18.3068 2.34763 18.3167 4.26362V19.722C18.3167 20.5513 18.0274 20.9533 17.7617 21.1098C17.4963 21.266 17.0058 21.324 16.2825 20.9211Z" fill="#0DC0DE" fill-opacity="0.1" stroke="#0DC0DE" stroke-width="1.5"/>
</svg>
